# xmcd
#
# Track frame offsets: 
#        150
#        14602
#        33848
#        52811
#        68151
#        84726
#        97894
#        115546
#        131813
#        149575
#        170636
#        187451
#        207471
#        225249
#        241490
#        259431
#        276320
#        295906
#        316213
#        332918
#
# Disc length: 4685 seconds
#
# Revision: 0
# Processed by: cddbd v1.5.2PL0 Copyright (c) Steve Scherf et al.
# Submitted via: ExactAudioCopy v0.99pb3
#
DISCID=33124b14
DTITLE=Various Artist - Nu Urban Traxx #130
DYEAR=2008
DGENRE=Blues
TTITLE0=Beyonce - Single Ladies (Put A Ring On It)
TTITLE1=Ne Yo - Mad
TTITLE2=T.I. Ft Jay Z Kanye West and M.I.A - Swagga Like Us
TTITLE3=Akon Ft Lil Wayne - I'm So Paid
TTITLE4=Keri Hudson Ft Timbaland - Return The Favor
TTITLE5=Busta Rhymes - Arab Money
TTITLE6=Plies - Put It On Ya
TTITLE7=Scooter Smith Ft Chris Brown - Head Of My Class
TTITLE8=Brutha Ft Fabolous - I Can't Hear The Music
TTITLE9=Bun B Ft Rick Ross - You're Everything
TTITLE10=T Pain Ft Chris Brown - Freeze
TTITLE11=Slim Ft Ryan Leslie - Good Lovin'
TTITLE12=Robin Thicke - The Sweetest Love
TTITLE13=Jadakiss Ft Ne Yo - By My Side
TTITLE14=Young Jeezy - Crazy World
TTITLE15=Ludacris Ft T Pain  One More Drink
TTITLE16=Sterling FT Jadakiss - All I Need
TTITLE17=Murphy Lee - My Shoes
TTITLE18=Lee Carr - Breathe
TTITLE19=Boxie Ft Juelz Santana - Let Me Show You
EXTD=
EXTT0=
EXTT1=
EXTT2=
EXTT3=
EXTT4=
EXTT5=
EXTT6=
EXTT7=
EXTT8=
EXTT9=
EXTT10=
EXTT11=
EXTT12=
EXTT13=
EXTT14=
EXTT15=
EXTT16=
EXTT17=
EXTT18=
EXTT19=
PLAYORDER=
